<?xml version="1.0" standalone="no"?>
<!DOCTYPE svg PUBLIC "-//W3C//DTD SVG 1.1//EN" "http://www.w3.org/Graphics/SVG/1.1/DTD/svg11.dtd" >
<svg xmlns="http://www.w3.org/2000/svg" xmlns:xlink="http://www.w3.org/1999/xlink" version="1.1">
<metadata>
Created by FontForge 20170731 at Wed Aug 20 17:42:37 1997
 By Aleksey,,,
a_BremenCaps *Arsenal Company (c) 1996*  FAX: (095)924-3775; e-Mail: arsenal@itco.msk.su; Phone: (095)924-5811 (Design and Featuring W.Chufarofsky)
</metadata>
<defs>
<font id="ABremenCaps" horiz-adv-x="512" >
  <font-face 
    font-family="a_BremenCaps"
    font-weight="400"
    font-variant="small-caps"
    font-stretch="normal"
    units-per-em="1000"
    panose-1="4 4 4 7 6 8 2 2 7 4"
    ascent="800"
    descent="-200"
    x-height="644"
    cap-height="700"
    bbox="-127 -242 1447 987"
    underline-thickness="90"
    underline-position="-345"
    unicode-range="U+0020-2122"
  />
<missing-glyph horiz-adv-x="500" 
d="M63 0v987h375v-987h-375zM125 63h250v862h-250v-862z" />
    <glyph glyph-name=".notdef" horiz-adv-x="500" 
d="M63 0v987h375v-987h-375zM125 63h250v862h-250v-862z" />
    <glyph glyph-name=".null" horiz-adv-x="0" 
 />
    <glyph glyph-name="nonmarkingreturn" horiz-adv-x="360" 
 />
    <glyph glyph-name="space" unicode=" " horiz-adv-x="360" 
 />
    <glyph glyph-name="exclam" unicode="!" horiz-adv-x="302" 
d="M238 699l-38 -493q-15 2 -23 2h-53q-7 0 -24 -2l-38 494q42 -3 74 -3h21q13 0 81 2zM255 84q-65 -63 -105 -104q-23 24 -103 104q58 53 103 104q53 -57 105 -104z" />
    <glyph glyph-name="quotedbl" unicode="&#x22;" horiz-adv-x="339" 
d="M299 440h-96v279h96v-279zM136 440h-96v279h96v-279z" />
    <glyph glyph-name="numbersign" unicode="#" horiz-adv-x="788" 
d="M765 504l-37 -90h-140l-42 -109h145l-35 -90h-146l-74 -187h-110l74 187h-122l-75 -187h-110l73 187h-144l38 90h142l42 109h-149l37 90h148l74 187h111l-73 -187h121l74 187h111l-74 -187h141zM479 414h-125l-44 -110h126z" />
    <glyph glyph-name="dollar" unicode="$" 
d="M490 598q-8 2 -21 2q-75 0 -130 -17q-84 -25 -84 -81q0 -35 48 -69q48 -29 96 -59q58 -39 75 -80q8 -22 8 -52q0 -116 -176 -176q-2 -9 -2 -30q0 -53 4 -117l-76 1q1 10 4 127q-66 -12 -130 -12q-35 0 -52 4l-24 60h8h13q9 -1 13 -1q60 0 109 18q67 25 67 74q0 27 -28 49
q-24 18 -72 55q-55 46 -66 60q-27 33 -27 83q0 73 61 128q49 45 128 71q-2 51 -4 126h76v-20q0 -16 -1 -44q-1 -31 -1 -44q52 6 118 6q27 0 42 -2z" />
    <glyph glyph-name="percent" unicode="%" horiz-adv-x="1008" 
d="M983 184q0 -95 -60.5 -145.5t-156.5 -50.5q-89 0 -143.5 56t-54.5 146q0 95 58 147t154 52q95 0 149 -55t54 -150zM761 756l-443 -847l-71 37l444 848zM440 507q0 -95 -62 -148q-58 -49 -155 -49q-90 0 -144.5 56t-54.5 146q0 96 59 148q56 50 153 50q95 0 149.5 -54
t54.5 -149zM842 158q0 58 -21 107q-24 57 -69 80q-44 -42 -44 -126q0 -133 86 -184q48 41 48 123zM299 482q0 57 -20 106q-23 58 -68 80q-45 -41 -45 -126q0 -132 87 -184q46 40 46 124z" />
    <glyph glyph-name="ampersand" unicode="&#x26;" horiz-adv-x="784" 
d="M800 142q-66 -71 -118 -162q-67 44 -133 105q-95 -95 -245 -95q-108 0 -181 53q-80 59 -80 164q0 146 157 216q-46 58 -46 117q0 80 69 126q59 40 143 40q73 0 120 -18l19 -70q-60 25 -99 25q-33 0 -55.5 -18.5t-22.5 -50.5q0 -36 25 -74q33 -50 109 -115
q63 -50 126 -101q14 44 14 76q0 58 -43 111q38 -4 86 -4q49 0 91 4q-12 -113 -95 -223q65 -54 159 -106zM500 128q-146 122 -268 260q-36 -34 -36 -90q0 -82 64.5 -141t147.5 -59q58 0 92 30z" />
    <glyph glyph-name="quotesingle" unicode="'" horiz-adv-x="176" 
d="M136 440h-96v279h96v-279z" />
    <glyph glyph-name="parenleft" unicode="(" horiz-adv-x="330" 
d="M301 -98l-55 -44q-186 186 -186 490t186 488l55 -45q-79 -95 -79 -443q0 -347 79 -446z" />
    <glyph glyph-name="parenright" unicode=")" horiz-adv-x="330" 
d="M271 348q0 -304 -186 -490l-55 44q79 99 79 446q0 348 -79 443l55 45q186 -184 186 -488z" />
    <glyph glyph-name="asterisk" unicode="*" horiz-adv-x="421" 
d="M398 518l-147 -7l113 -97l-100 -71l-54 139l-54 -139l-98 71l111 97l-145 7l36 117l126 -77l-38 142h124l-36 -142l124 77z" />
    <glyph glyph-name="plus" unicode="+" horiz-adv-x="853" 
d="M726 256h-249v-256h-101v256h-249v100h249v254h101v-254h249v-100z" />
    <glyph glyph-name="comma" unicode="," horiz-adv-x="308" 
d="M262 98q-46 -74 -134 -225l-66 43q23 59 46 125l-52 49q54 56 100 108q64 -67 106 -100z" />
    <glyph glyph-name="hyphen" unicode="-" horiz-adv-x="307" 
d="M293 306q-23 2 -45 2h-182q-26 0 -52 -2v106h8q23 0 69 -1t69 -1q36 0 133 2v-106z" />
    <glyph glyph-name="hyphen" unicode="&#x2010;" horiz-adv-x="307" 
d="M293 306q-23 2 -45 2h-182q-26 0 -52 -2v106h8q23 0 69 -1t69 -1q36 0 133 2v-106z" />
    <glyph glyph-name="period" unicode="." horiz-adv-x="308" 
d="M264 89q-13 -12 -110 -109q-36 37 -109 109q58 52 109 109q30 -34 110 -109z" />
    <glyph glyph-name="slash" unicode="/" horiz-adv-x="261" 
d="M276 694l-220 -777l-96 30l224 776z" />
    <glyph glyph-name="zero" unicode="0" horiz-adv-x="759" 
d="M731 350q0 -155 -105.5 -257t-261.5 -102q-148 0 -244 105q-94 102 -94 251q0 159 101 260t260 101q156 0 250 -100.5t94 -257.5zM511 314q0 112 -37 193q-44 99 -136 136q-91 -81 -91 -243q0 -110 36 -194q45 -102 134 -138q94 76 94 246z" />
    <glyph glyph-name="one" unicode="1" horiz-adv-x="375" 
d="M293 722q-7 -221 -7 -377q0 -88 6 -345q-42 3 -87 3q-43 0 -84 -3l-30 28q5 129 5 265q0 78 -5 255l-95 14l20 54q148 41 277 106z" />
    <glyph glyph-name="two" unicode="2" horiz-adv-x="595" 
d="M574 112q-127 -86 -188 -134q-204 38 -419 66l39 64q55 30 111 64q191 116 191 256q0 162 -204 162q-49 0 -103 -14l41 67q95 59 214 59q109 0 185 -59q83 -65 83 -171q0 -122 -134 -210q-58 -38 -242 -112l411 -16z" />
    <glyph glyph-name="three" unicode="3" horiz-adv-x="582" 
d="M555 202q0 -112 -115 -166q-88 -42 -214 -42t-194 28l-48 76q59 -14 116 -14q232 0 232 132q0 70 -65 95q-42 17 -125 17q-21 0 -28 -2l-25 70q77 6 131 26q83 30 83 86q0 106 -187 106q-48 0 -104 -8l34 58q94 42 194 42q102 0 184 -40q102 -50 102 -142
q0 -99 -152 -132q78 -19 126 -64q55 -52 55 -126z" />
    <glyph glyph-name="four" unicode="4" horiz-adv-x="612" 
d="M597 265l-23 -99h-50v-3q0 -17 1 -47q2 -33 2 -47q0 -23 1 -69q-45 3 -88 3t-82 -3l-26 28l1 138h-271l-53 120l407 413q44 -3 56 -3q29 0 51 4v-45q0 -19 -1 -49q-1 -33 -1 -49v-97q0 -80 3 -195h73zM333 265v237l-243 -237h243z" />
    <glyph glyph-name="five" unicode="5" horiz-adv-x="580" 
d="M563 217q0 -45 -26 -89q-81 -137 -295 -137q-118 0 -203 45l-35 72q68 -18 129 -18q77 0 128 21q70 30 70 96q0 44 -28 73q-39 40 -128 63q-13 3 -145 27l60 322h40h30q20 -1 30 -1h234q11 0 34 1h33h39l-42 -100q-176 14 -354 14l-28 -132q172 -5 288 -50
q169 -67 169 -207z" />
    <glyph glyph-name="six" unicode="6" horiz-adv-x="708" 
d="M688 260q0 -131 -104 -203q-92 -64 -228 -64q-144 0 -235 88t-91 231q0 99 47 185q58 107 166 162q100 51 228 51q79 0 125 -22l22 -81q-47 30 -124 30q-208 0 -237 -165q62 20 136 20q125 0 203 -52q92 -61 92 -180zM479 218q0 97 -66 148q-60 46 -160 46q-9 -44 -9 -75
q0 -94 31 -171q40 -98 117 -116q87 63 87 168z" />
    <glyph glyph-name="seven" unicode="7" horiz-adv-x="614" 
d="M594 643l-270 -621q-164 -6 -323 -34l455 619q-215 0 -472 -14l63 99h107h50q34 -1 50 -1h108q16 0 51 1h50h102z" />
    <glyph glyph-name="eight" unicode="8" horiz-adv-x="692" 
d="M664 206q0 -119 -106 -175q-81 -43 -212 -43q-128 0 -212 44q-106 57 -106 174q0 132 141 184q-121 40 -121 144q0 98 107 143q77 33 191 33q116 0 192 -32q106 -45 106 -144q0 -104 -120 -144q140 -50 140 -184zM456 521q0 46 -33 79q-29 30 -76 43q-46 -15 -75 -44
q-34 -34 -34 -78q0 -43 35 -77q29 -30 74 -44q46 13 77.5 44.5t31.5 76.5zM469 203q0 100 -122 136q-51 -16 -84 -49q-37 -37 -37 -87q0 -49 37 -87q33 -34 84 -48q52 14 85 47q37 38 37 88z" />
    <glyph glyph-name="nine" unicode="9" horiz-adv-x="708" 
d="M684 391q0 -98 -47.5 -185t-130.5 -142q-107 -71 -264 -71q-78 0 -124 21l-22 81q47 -29 123 -29q200 0 233 150q-58 -20 -134 -20q-127 0 -205 52q-91 61 -91 182q0 137 103 212q92 68 233 68q145 0 235.5 -87.5t90.5 -231.5zM468 352q0 102 -28 178q-38 103 -118 122
q-88 -65 -88 -174q0 -202 226 -202q8 34 8 76z" />
    <glyph glyph-name="colon" unicode=":" horiz-adv-x="308" 
d="M264 360q-48 -47 -110 -110q-44 45 -109 110q58 52 109 109q51 -55 110 -109zM264 89q-13 -12 -110 -109q-36 37 -109 109q58 52 109 109q30 -34 110 -109z" />
    <glyph glyph-name="semicolon" unicode=";" horiz-adv-x="308" 
d="M264 360l-110 -110q-67 69 -109 110q53 47 109 109q56 -61 110 -109zM264 98q-67 -106 -136 -225l-66 43q23 53 46 125l-52 49q64 67 100 108q49 -52 108 -100z" />
    <glyph glyph-name="less" unicode="&#x3c;" horiz-adv-x="853" 
d="M721 58l-589 242v100l589 241v-109l-447 -183l447 -182v-109z" />
    <glyph glyph-name="equal" unicode="=" horiz-adv-x="853" 
d="M726 398h-599v99h599v-99zM726 182h-599v100h599v-100z" />
    <glyph glyph-name="greater" unicode="&#x3e;" horiz-adv-x="853" 
d="M721 300l-589 -242v109l447 182l-447 183v109l589 -241v-100z" />
    <glyph glyph-name="question" unicode="?" horiz-adv-x="470" 
d="M444 509q0 -121 -225 -285q-54 0 -95 -14q130 155 130 262q0 72 -50 108q-45 32 -119 32q-50 0 -95 -14l28 68q81 44 180 44q95 0 167 -52q79 -57 79 -149zM293 84q-25 -24 -105 -104q-34 35 -104 104q56 53 104 104q43 -46 105 -104z" />
    <glyph glyph-name="at" unicode="@" horiz-adv-x="1024" 
d="M980 382q0 -128 -79 -225q-85 -104 -210 -104q-106 0 -107 83q-54 -82 -149 -82q-161 0 -161 170q0 111 64 193q69 89 177 89q81 0 118 -66l27 50h88l-73 -300q-3 -12 -3 -20q0 -35 47 -35q39 0 81 38q87 78 87 211q0 129 -104 205q-94 69 -228 69q-141 0 -241 -67
q-177 -119 -177 -330q0 -160 112 -252q105 -85 268 -85q162 0 302 96l41 -59q-152 -115 -341 -115q-194 0 -319 96q-155 119 -155 318q0 142 75.5 259t205.5 175q104 46 232 46q175 0 293 -89q129 -99 129 -269zM608 350q-12 83 -87 83q-66 0 -107 -75q-34 -63 -34 -136
q0 -94 79 -94q41 0 76 32t47 82z" />
    <glyph glyph-name="A" unicode="A" horiz-adv-x="742" 
d="M770 100q-88 -57 -173 -126q-130 230 -264 449q-141 -195 -293 -449l-62 88q137 201 296 455l-66 95q86 56 167 117q190 -326 395 -629zM456 122q-56 -45 -134 -117q-70 66 -136 117q72 72 136 146q53 -65 134 -146z" />
    <glyph glyph-name="B" unicode="B" horiz-adv-x="728" 
d="M688 196q0 -167 -236 -189q-74 -7 -160 -7h-182l-33 30q8 176 8 322q0 148 -8 314l35 34h147q126 0 191 -9q123 -17 169 -69q30 -34 30 -90q0 -115 -169 -156q208 -41 208 -180zM461 509q0 70 -61 106q-49 28 -126 31l-2 -272q76 4 125 32q64 35 64 103zM498 192
q0 125 -226 139l2 -278q224 14 224 139z" />
    <glyph glyph-name="C" unicode="C" horiz-adv-x="592" 
d="M592 141l-116 -141q-28 -5 -76 -5q-163 0 -263 91q-103 94 -103 255q0 165 109 265q105 98 271 98q54 0 100 -8l51 -84q-77 10 -102 10q-111 0 -170 -58t-59 -168q0 -125 80 -194q76 -66 203 -66q18 0 75 5z" />
    <glyph glyph-name="D" unicode="D" horiz-adv-x="786" 
d="M754 360q0 -202 -146 -290q-115 -70 -332 -70h-166l-33 30q8 176 8 322q0 148 -8 314l35 34h176q210 0 294 -42q172 -86 172 -298zM538 362q0 277 -260 281q-6 -144 -6 -291q0 -145 6 -292q260 16 260 302z" />
    <glyph glyph-name="E" unicode="E" horiz-adv-x="580" 
d="M578 -1q-137 5 -197 5h-84q-91 0 -187 -4l-33 30q8 176 8 322q0 148 -8 314l35 34q124 -4 216 -4q98 0 220 4l-39 -80q-68 4 -143 4h-84l-6 -244q69 47 150 110q56 -74 118 -136q-94 -68 -142 -112q-47 54 -126 128l6 -292h21h22q14 -1 21 -1q92 0 188 7z" />
    <glyph glyph-name="F" unicode="F" horiz-adv-x="560" 
d="M548 700l-39 -80q-68 4 -142 4h-85l-6 -244q69 47 150 110q56 -74 118 -136q-93 -68 -142 -112q-46 54 -126 130q0 -184 20 -372q-48 3 -96 3q-46 0 -90 -3l-33 30q8 176 8 322q0 148 -8 314l35 34q124 -4 216 -4q98 0 220 4z" />
    <glyph glyph-name="G" unicode="G" horiz-adv-x="698" 
d="M704 284q-110 -131 -198 -286h-6q7 0 -16 -2q-26 -2 -67 -2q-175 0 -274 89q-103 92 -103 265q0 166 109 264q104 94 272 94q66 0 113 -12l42 -76l-6 -8q-54 10 -114 10q-105 0 -160.5 -57.5t-55.5 -162.5q0 -123 71 -195t194 -72q15 0 39 3q-54 84 -112 148
q67 60 133 136q72 -79 139 -136z" />
    <glyph glyph-name="H" unicode="H" horiz-adv-x="808" 
d="M731 30l-32 -30q-42 3 -85 3q-44 0 -84 -3q4 146 4 307h-260v-51q0 -104 4 -256q-40 3 -84 3q-42 0 -84 -3l-33 30q8 176 8 322q0 148 -8 314l35 34q41 -4 82 -4q33 0 84 3q-4 -135 -4 -220v-88h260q0 173 -4 308q51 -3 84 -3q42 0 83 4l34 -34q-7 -128 -7 -314
q0 -187 7 -322z" />
    <glyph glyph-name="I" unicode="I" horiz-adv-x="376" 
d="M295 30l-32 -30q-45 3 -93 3q-46 0 -90 -3q8 186 8 340q0 156 -8 326l35 34q45 -4 88 -4q35 0 92 3q-7 -137 -7 -335q0 -197 7 -334z" />
    <glyph glyph-name="J" unicode="J" horiz-adv-x="366" 
d="M295 699q-7 -119 -7 -255q0 -43 2.5 -130t2.5 -130q0 -169 -67 -250q-82 -99 -208 -99q-83 0 -126 29l-19 78q37 -27 97 -27q54 0 90 42q30 37 40 94q7 42 7 133q0 211 -21 482l34 33q49 -3 86 -3t89 3z" />
    <glyph glyph-name="K" unicode="K" horiz-adv-x="738" 
d="M742 102q-69 -47 -160 -124q-104 171 -270 422l-36 -24q5 -190 21 -376q-46 4 -97 4q-49 0 -90 -4l-33 30q8 176 8 322q0 148 -8 314l35 34q40 -4 84 -4q46 0 92 4q-16 -132 -16 -250q172 134 335 269l77 -57l-218 -159q123 -201 276 -401z" />
    <glyph glyph-name="L" unicode="L" horiz-adv-x="532" 
d="M549 86l-43 -87q-100 4 -220 4q-91 0 -176 -3l-33 30q8 176 8 322q0 148 -8 314l35 34q38 -4 84 -4q43 0 88 4q-8 -150 -8 -315t8 -307h34q113 0 231 8z" />
    <glyph glyph-name="M" unicode="M" horiz-adv-x="888" 
d="M809 30l-30 -30q-37 3 -81 3q-40 0 -84 -3q2 46 2 61v85q0 186 -4 302l-221 -306q-107 153 -211 287v-396l-90 -53v552l-42 50q77 62 148 140q130 -185 268 -352l231 329q45 -3 59 -3q20 0 55 3q-6 -167 -6 -335q0 -166 6 -334z" />
    <glyph glyph-name="N" unicode="N" horiz-adv-x="790" 
d="M754 108q-78 -66 -142 -134q-133 159 -401 474v-416l-101 -50v578l-40 45q84 58 160 118q207 -266 380 -449v396l98 50v-562z" />
    <glyph glyph-name="O" unicode="O" horiz-adv-x="778" 
d="M756 349q0 -160 -114 -262q-110 -97 -272 -97q-110 0 -192.5 53t-124.5 153q-31 74 -31 154q0 163 112 263q107 97 272 97q158 0 254 -101t96 -260zM540 303q0 120 -45 206q-52 97 -156 135q-103 -74 -103 -238q0 -119 44 -204q51 -98 153 -138q107 75 107 239z" />
    <glyph glyph-name="P" unicode="P" horiz-adv-x="664" 
d="M636 488q0 -234 -360 -240q4 -119 22 -248q-46 3 -95 3q-48 0 -93 -3l-33 30q8 176 8 322q0 148 -8 314l35 34q37 0 113 1h113q61 0 92 -4q37 -5 75 -21q131 -55 131 -188zM452 471q0 76 -48 122q-44 42 -122 51q-6 -154 -6 -279v-64q176 20 176 170z" />
    <glyph glyph-name="Q" unicode="Q" horiz-adv-x="778" 
d="M768 -30q-97 -57 -168 -143q-73 94 -165 170q-40 -6 -73 -6q-108 0 -188 53t-121 152q-31 75 -31 154q0 163 112 263q107 97 272 97q155 0 252.5 -101.5t97.5 -256.5q0 -176 -146 -270q72 -66 158 -112zM540 303q0 120 -45 206q-52 97 -156 135q-103 -74 -103 -238
q0 -119 44 -204q51 -98 153 -138q107 75 107 239z" />
    <glyph glyph-name="R" unicode="R" horiz-adv-x="730" 
d="M731 104q-83 -56 -161 -134q-116 166 -228 310h-63q0 -175 13 -284q-31 4 -94 4q-56 0 -85 -4l-36 26q14 165 14 320q0 126 -5 193q-4 46 -10 138l42 27q97 -7 114 -7q23 0 68.5 4t68.5 4q113 0 193 -45q98 -55 98 -160q0 -135 -126 -176q86 -102 197 -216zM468 482
q0 143 -180 163q-9 -191 -9 -281v-38q189 15 189 156z" />
    <glyph glyph-name="S" unicode="S" horiz-adv-x="476" 
d="M530 624q-33 6 -59 6q-83 0 -111 -80q-16 -47 -16 -150q0 -14 1 -42v-42q0 -156 -49 -221q-75 -100 -210 -100q-66 0 -114 21l-21 54q21 -8 49 -8q81 0 112 63q22 44 22 135q0 21 -1 63t-1 63q0 139 54 222q64 98 196 98q65 0 127 -31z" />
    <glyph glyph-name="T" unicode="T" horiz-adv-x="532" 
d="M559 697l-37 -83h-144q-12 -152 -12 -278q0 -112 12 -340q-33 4 -106 4q-53 0 -82 -4l-30 34q8 152 8 262q0 171 -6 251q-2 24 -6 71h-144l-36 84q200 -7 296 -7q139 0 287 6z" />
    <glyph glyph-name="U" unicode="U" horiz-adv-x="808" 
d="M731 30l-33 -30q-40 3 -84 3q-42 0 -84 -3q2 27 2 69v33q-160 -107 -271 -107q-106 0 -147 77q-29 55 -29 172v126q0 112 -8 296l35 34q45 -4 84 -4q15 0 43.5 1.5t42.5 1.5q-3 -17 -3 -76q0 -51 -1.5 -153t-1.5 -153q0 -97 17 -136q27 -62 111 -62q64 0 128 42
q0 32 1 95t1 95q0 217 -4 348q51 -3 84 -3q41 0 82 4l35 -34q-7 -128 -7 -314q0 -187 7 -322z" />
    <glyph glyph-name="V" unicode="V" horiz-adv-x="633" 
d="M652 652q-150 -328 -254 -652q-24 3 -51 3q-26 0 -53 -3q-144 315 -306 597l15 27q86 39 160 96q84 -199 222 -450l183 448z" />
    <glyph glyph-name="W" unicode="W" horiz-adv-x="935" 
d="M952 656q-134 -297 -246 -656q-19 3 -40 3q-20 0 -41 -3q-80 211 -155 382q-76 -184 -134 -382q-18 3 -39 3q-19 0 -39 -3q-118 298 -272 593l10 35q90 38 165 92q83 -218 185 -426l80 192l-60 126l15 36q70 29 147 74q60 -167 176 -422l159 422z" />
    <glyph glyph-name="X" unicode="X" horiz-adv-x="662" 
d="M648 116q-92 -76 -154 -134q-89 139 -184 260l-216 -266l-56 96l212 246q-78 103 -214 252l5 33q75 50 145 117q95 -146 174 -246l218 248l50 -86l-204 -240q100 -115 223 -244z" />
    <glyph glyph-name="Y" unicode="Y" horiz-adv-x="622" 
d="M634 631l-206 -299q-1 -11 -1 -30q0 -150 25 -302q-52 3 -105 3q-52 0 -101 -3l-23 18q15 109 15 278q-123 163 -222 274l10 32q77 48 151 118q85 -149 198 -299l195 299z" />
    <glyph glyph-name="Z" unicode="Z" horiz-adv-x="612" 
d="M596 84l-39 -84q-180 5 -262 5q-81 0 -262 -5l-40 60q197 289 353 566q-165 0 -313 -6l36 80q113 -6 205 -6q122 0 274 8l34 -56q-200 -308 -340 -569q203 0 354 7z" />
    <glyph glyph-name="bracketleft" unicode="[" horiz-adv-x="307" 
d="M312 -107q-92 2 -86 2h-75q13 0 -91 -2q2 77 2 113v686q0 34 -2 111q23 -1 58 -1h147q26 0 47 1v-66h-100q-2 -134 -2 -185v-229q0 -61 1 -182.5t1 -181.5h100v-66z" />
    <glyph glyph-name="backslash" unicode="\" horiz-adv-x="261" 
d="M301 -53l-95 -30l-222 777l94 29z" />
    <glyph glyph-name="bracketright" unicode="]" horiz-adv-x="307" 
d="M247 -107q-103 2 -91 2h-75q6 0 -86 -2v66h100q0 42 1 126.5t1 126.5v402q0 -11 -2 123h-100v66q21 -1 63 -1q166 0 189 1q-2 -154 -2 -212v-485q0 -59 2 -213z" />
    <glyph glyph-name="asciicircum" unicode="^" horiz-adv-x="1024" 
d="M815 450h-117l-186 185l-186 -185h-118l240 280h126z" />
    <glyph glyph-name="underscore" unicode="_" 
d="M512 -242h-512v102h512v-102z" />
    <glyph glyph-name="grave" unicode="`" 
d="M408 748h-88l-216 155h182z" />
    <glyph glyph-name="a" unicode="a" horiz-adv-x="694" 
d="M719 140q-77 -48 -151 -106q-113 193 -230 378q-122 -164 -255 -378l-54 74q119 169 258 383l-57 79q74 47 145 99q165 -274 344 -529zM445 159q-49 -38 -116 -99q-61 56 -119 99q63 60 119 122q46 -55 116 -122z" />
    <glyph glyph-name="b" unicode="b" horiz-adv-x="683" 
d="M648 221q0 -100 -109 -141q-62 -24 -235 -24h-159l-28 25q7 148 7 271q0 124 -7 263l30 29h132q152 0 206 -14q129 -34 129 -127q0 -97 -147 -131q181 -34 181 -151zM451 484q0 59 -54 89q-42 24 -109 26l-2 -229q66 4 109 27q56 30 56 87zM483 217q0 105 -197 117
l2 -233q195 11 195 116z" />
    <glyph glyph-name="c" unicode="c" horiz-adv-x="556" 
d="M556 174l-101 -118q-24 -4 -66 -4q-142 0 -229 76q-90 79 -90 214q0 139 95 223q92 82 236 82q47 0 87 -6l44 -71q-66 8 -89 8q-199 0 -199 -189q0 -105 70 -164q66 -55 176 -55q17 0 66 4z" />
    <glyph glyph-name="d" unicode="d" horiz-adv-x="738" 
d="M710 358q0 -302 -416 -302h-144l-29 25q7 148 7 271q0 124 -7 263l30 29h154q183 0 255 -35q150 -73 150 -251zM522 360q0 232 -226 236q-5 -121 -5 -244q0 -122 5 -246q226 14 226 254z" />
    <glyph glyph-name="e" unicode="e" horiz-adv-x="547" 
d="M545 55q-119 4 -171 4h-73q-79 0 -163 -3l-28 25q7 148 7 271q0 124 -7 263l30 29q108 -3 188 -3q85 0 191 3l-34 -67q-59 3 -124 3h-73l-5 -205q60 40 130 93q49 -63 103 -115q-82 -57 -124 -94q-40 45 -109 108l5 -246h18h18.5h19.5q79 0 163 5z" />
    <glyph glyph-name="f" unicode="f" horiz-adv-x="528" 
d="M517 644l-34 -67q-59 3 -123 3h-74l-5 -205q60 40 130 93q49 -63 103 -115q-81 -57 -124 -94q-40 46 -109 109q0 -154 17 -312q-42 3 -83 3q-40 0 -79 -3l-28 25q7 148 7 271q0 124 -7 263l30 29q108 -3 188 -3q86 0 191 3z" />
    <glyph glyph-name="g" unicode="g" horiz-adv-x="656" 
d="M661 295q-96 -111 -172 -241h-6h-7q-5 -1 -7 -1q-22 -2 -58 -2q-152 0 -238 74q-90 78 -90 223q0 140 95 222q91 79 237 79q57 0 98 -10l36 -64l-5 -7q-46 9 -99 9q-91 0 -139.5 -48.5t-48.5 -136.5q0 -104 62 -164t169 -60q13 0 34 2q-47 71 -98 125q59 50 116 114
q63 -66 121 -114z" />
    <glyph glyph-name="h" unicode="h" horiz-adv-x="755" 
d="M688 81l-27 -25q-37 3 -74 3q-38 0 -73 -3q3 123 3 258h-226v-43q0 -87 3 -215q-35 3 -73 3q-36 0 -73 -3l-28 25q6 148 6 271q0 124 -6 263l30 29q36 -3 71 -3q29 0 73 2q-3 -114 -3 -185v-74h226q0 146 -3 259q44 -2 73 -2q36 0 72 3l29 -29q-6 -107 -6 -263
q0 -158 6 -271z" />
    <glyph glyph-name="i" unicode="i" horiz-adv-x="351" 
d="M281 81l-28 -25q-39 3 -81 3q-40 0 -78 -3q7 156 7 286t-7 273l30 29q40 -3 77 -3q31 0 80 2q-6 -115 -6 -281t6 -281z" />
    <glyph glyph-name="j" unicode="j" horiz-adv-x="329" 
d="M268 630q-7 -100 -7 -214q0 -37 2.5 -109.5t2.5 -109.5q0 -142 -58 -210q-72 -83 -181 -83q-73 0 -110 24l-17 66q33 -23 85 -23q47 0 78 36q27 31 35 79q6 35 6 111q0 177 -18 405l29 28q43 -3 75 -3t78 3z" />
    <glyph glyph-name="k" unicode="k" horiz-adv-x="695" 
d="M699 141q-60 -39 -139 -104q-91 144 -235 355l-32 -20q5 -160 19 -316q-41 3 -85 3q-43 0 -78 -3l-29 25q7 148 7 270q0 125 -7 264l31 29q35 -4 73 -4q40 0 80 4q-14 -111 -14 -210q149 112 291 226l67 -48l-189 -134q107 -169 240 -337z" />
    <glyph glyph-name="l" unicode="l" horiz-adv-x="504" 
d="M518 128l-37 -73q-87 3 -191 3q-79 0 -154 -2l-28 25q7 148 7 271q0 124 -7 263l30 29q33 -3 73 -3q37 0 77 3q-7 -126 -7 -265q0 -138 7 -258h29q99 0 201 7z" />
    <glyph glyph-name="m" unicode="m" horiz-adv-x="828" 
d="M760 81l-27 -25q-32 3 -70 3q-35 0 -73 -3q2 39 2 51v72q0 156 -4 253l-192 -257q-93 129 -184 242v-333l-78 -45v464l-37 42q67 52 129 118q113 -156 233 -296l201 276q39 -2 52 -2q17 0 48 2q-6 -140 -6 -281q0 -139 6 -281z" />
    <glyph glyph-name="n" unicode="n" horiz-adv-x="741" 
d="M710 146q-68 -55 -124 -112q-116 133 -349 398v-349l-88 -42v485l-35 38q73 49 140 99q180 -224 330 -377v333l86 42v-473z" />
    <glyph glyph-name="o" unicode="o" horiz-adv-x="727" 
d="M708 349q0 -134 -99 -220q-96 -81 -237 -81q-200 0 -275 173q-27 62 -27 129q0 137 97 221q93 81 237 81q137 0 220.5 -85t83.5 -218zM520 311q0 225 -174 286q-90 -62 -90 -200q0 -223 171 -287q93 63 93 201z" />
    <glyph glyph-name="p" unicode="p" horiz-adv-x="624" 
d="M600 466q0 -197 -314 -202q4 -99 20 -208q-41 3 -83 3t-81 -3l-29 25q7 148 7 271q0 124 -7 264l31 28q32 0 98 1h98q94 0 146 -21q114 -47 114 -158zM440 452q0 128 -148 145q-6 -129 -6 -234v-54q154 17 154 143z" />
    <glyph glyph-name="q" unicode="q" horiz-adv-x="728" 
d="M720 18q-85 -48 -147 -120q-63 79 -143 142q-35 -5 -64 -5q-194 0 -269 173q-27 62 -27 129q0 137 98 221q93 81 237 81q134 0 219 -85t85 -215q0 -148 -127 -227q63 -56 138 -94zM521 297q0 226 -175 287q-89 -62 -89 -200q0 -223 171 -287q93 63 93 200z" />
    <glyph glyph-name="r" unicode="r" horiz-adv-x="687" 
d="M683 141q-72 -47 -140 -113q-101 140 -199 261h-53q3 -118 17 -235q-42 2 -84 2q-39 0 -76 -2l-29 25q7 148 7 270q0 124 -7 264l31 29h103q68 1 103 1q57 0 87 -5q34 -5 72 -22q106 -47 106 -146q0 -114 -110 -148q75 -85 172 -181zM454 459q0 120 -157 136
q-6 -142 -6 -237v-30q163 12 163 131z" />
    <glyph glyph-name="s" unicode="s" horiz-adv-x="445" 
d="M492 580q-28 5 -51 5q-72 0 -96 -67q-14 -40 -14 -126v-35.5v-34.5q0 -131 -42 -186q-66 -84 -183 -84q-57 0 -99 18l-18 45q18 -7 42 -7q71 0 98 53q19 37 19 113q0 18 -1 53.5t-1 52.5q0 117 47 187q56 82 171 82q56 0 110 -26z" />
    <glyph glyph-name="t" unicode="t" horiz-adv-x="498" 
d="M521 641l-32 -69h-125q-11 -110 -11 -268q0 -120 7 -248q-39 2 -78 2q-41 0 -80 -2l-28 25q7 126 7 229q0 133 -11 262h-125l-31 70q150 -5 257 -5q79 0 250 4z" />
    <glyph glyph-name="u" unicode="u" horiz-adv-x="755" 
d="M688 81l-28 -25q-35 2 -73 2q-37 0 -73 -2q1 22 1 58v27q-139 -90 -235 -90q-93 0 -128 65q-26 46 -26 145v105q0 94 -6 249l30 29q39 -4 73 -4q13 0 38 1.5t37 1.5q-3 -15 -3 -64q0 -43 -1 -128.5t-1 -128.5q0 -82 14 -114q24 -52 97 -52q56 0 111 35q0 26 1 79.5
t1 79.5q0 183 -3 293q44 -3 73 -3q35 0 71 4l30 -29q-6 -107 -6 -264t6 -270z" />
    <glyph glyph-name="v" unicode="v" horiz-adv-x="592" 
d="M609 605q-131 -275 -221 -547q-21 2 -45 2q-22 0 -46 -2q-125 264 -266 501l13 23q75 32 139 80q74 -167 194 -378l159 377z" />
    <glyph glyph-name="w" unicode="w" horiz-adv-x="874" 
d="M889 609q-116 -249 -214 -551q-16 2 -35 2q-17 0 -35 -2q-70 177 -135 321q-66 -155 -117 -321q-16 2 -34 2q-16 0 -34 -2q-102 250 -236 498l8 29q79 32 144 78q72 -183 161 -358l70 161l-53 106l13 30q62 24 128 62q53 -140 153 -354l139 354z" />
    <glyph glyph-name="x" unicode="x" horiz-adv-x="620" 
d="M608 153q-79 -64 -134 -112q-77 116 -160 218l-188 -223l-48 80l184 207q-68 87 -186 212l4 27q65 42 126 99q83 -123 152 -207l189 208l44 -72l-178 -202q87 -96 194 -204z" />
    <glyph glyph-name="y" unicode="y" horiz-adv-x="583" 
d="M594 588l-179 -252q-1 -8 -1 -25q0 -126 21 -253q-45 2 -91 2q-45 0 -88 -2l-20 15q13 91 13 233q-107 137 -193 230l9 27q67 41 131 99q74 -125 172 -251l170 251z" />
    <glyph glyph-name="z" unicode="z" horiz-adv-x="571" 
d="M557 127l-34 -71q-157 4 -228 4t-228 -4l-35 51q171 242 307 475q-144 0 -272 -5l31 67q98 -5 179 -5q106 0 238 7l30 -47q-175 -259 -296 -478q176 0 308 6z" />
    <glyph glyph-name="braceleft" unicode="{" 
d="M442 -127h-12h-13q-9 -1 -13 -1q-99 0 -141 24q-34 20 -46 64q-6 27 -6 82v126q0 68 -25 97t-92 29q2 0 -15 -1v105q3 0 10 -1t11 -1q63 0 89 34q22 29 22 94v124q0 99 28 129q40 43 165 43q7 0 19.5 -1t18.5 -1v-104l-17 1q-57 0 -75 -19t-18 -82v-120q0 -68 -19 -98
q-22 -36 -85 -51q62 -14 85 -50q19 -31 19 -99v-120q0 -60 17.5 -80t68.5 -20q4 0 12.5 1t11.5 1v-105z" />
    <glyph glyph-name="bar" unicode="|" 
d="M308 -128h-103v910h103v-910z" />
    <glyph glyph-name="braceright" unicode="}" 
d="M433 293q-17 1 -15 1q-66 0 -91.5 -29.5t-25.5 -96.5v-126q0 -72 -11 -100q-28 -70 -182 -70q-6 0 -19 1h-19v105q3 0 11.5 -1t12.5 -1q52 0 69 19t17 81v120q0 68 19 99q23 36 85 50q-68 16 -89 59q-16 32 -16 110q0 15 1 45.5t1 45.5q0 65 -14 84q-18 26 -79 26
q4 0 -18 -1v104q6 0 18.5 1t19.5 1q125 0 165 -43q28 -30 28 -129v-124q0 -64 23 -94q26 -34 88 -34q4 0 11 1t10 1v-105z" />
    <glyph glyph-name="asciitilde" unicode="~" horiz-adv-x="853" 
d="M765 291q-101 -69 -189 -69q-51 0 -147 33t-147 33q-81 0 -193 -79v111q105 71 193 71q51 0 117 -19l114 -36q40 -12 65 -12q80 0 187 78v-111z" />
    <glyph glyph-name="currency" unicode="&#xa4;" horiz-adv-x="620" 
d="M588 151l-52 -52l-102 101q-53 -38 -122 -38q-71 0 -124 38l-102 -101l-52 52l101 103q-37 53 -37 120q0 69 37 121l-101 103l52 53l102 -101q53 38 122 38q71 0 124 -38l102 101l52 -53l-102 -103q38 -51 38 -121q0 -67 -38 -120zM450 374q0 56 -41 97t-97 41t-97.5 -41
t-41.5 -97t41 -96.5t98 -40.5q56 0 97 40.5t41 96.5z" />
    <glyph glyph-name="brokenbar" unicode="&#xa6;" 
d="M308 369h-103v379h103v-379zM308 -105h-103v379h103v-379z" />
    <glyph glyph-name="section" unicode="&#xa7;" 
d="M458 299q0 -97 -102 -179q67 -49 67 -121q0 -83 -74 -128q-63 -38 -151 -38q-71 0 -111 21l-19 64q57 -24 111 -24q117 0 117 76q0 30 -27 55q-13 12 -53 35q-46 27 -83 52q-19 12 -47 36q-33 40 -33 88q0 95 105 185q-60 49 -60 113q0 83 72 131q62 41 150 41
q40 0 76 -10l22 -58q-39 9 -80 9q-114 0 -114 -75q0 -34 38 -66q21 -17 81 -51q52 -30 69 -49q46 -51 46 -107zM362 240q0 37 -66 88q-20 15 -99 66l-3 2q-9 0 -25 -45q-2 -5 -12 -36l-3 -8l-2 -4v0q0 -33 45 -67.5t121 -85.5q44 46 44 90z" />
    <glyph glyph-name="copyright" unicode="&#xa9;" horiz-adv-x="853" 
d="M798 366q0 -155 -107 -260q-113 -111 -265 -111q-151 0 -260.5 110t-109.5 261q0 155 107.5 264.5t262.5 109.5q156 0 264 -108.5t108 -265.5zM738 368q0 129 -91 219.5t-220 90.5q-130 0 -219 -90q-92 -94 -92 -220q0 -128 91.5 -219t219.5 -91q127 0 221 92
q90 88 90 218zM612 298q-4 -73 -59 -115q-51 -39 -126 -39q-97 0 -150 63q-51 59 -51 157q0 99 51 160q54 66 151 66q71 0 120 -35q54 -39 58 -107h-94q-8 74 -86 74q-54 0 -79 -53q-19 -40 -19 -101q0 -151 102 -151q77 0 85 81h97z" />
    <glyph glyph-name="guillemotleft" unicode="&#xab;" horiz-adv-x="519" 
d="M496 200l-73 -77l-173 221l172 221l74 -77l-120 -144zM276 200l-73 -77l-175 221l174 221l74 -77l-120 -144z" />
    <glyph glyph-name="logicalnot" unicode="&#xac;" horiz-adv-x="853" 
d="M726 181h-100v153h-499v98h599v-251z" />
    <glyph glyph-name="registered" unicode="&#xae;" horiz-adv-x="853" 
d="M798 366q0 -156 -109 -262q-112 -109 -263 -109q-152 0 -261 109.5t-109 261.5q0 102 54 194q51 86 133.5 133t182.5 47q112 0 209 -63.5t137 -167.5q26 -67 26 -143zM738 362q0 131 -90 223.5t-221 92.5q-127 0 -216 -88q-95 -94 -95 -222q0 -127 91.5 -219.5
t218.5 -92.5q125 0 218.5 90.5t93.5 215.5zM612 168h-112l-78 169h-50v-169h-100v412h162q176 0 176 -118q0 -89 -90 -110zM507 456q0 61 -90 61h-45v-119h50q85 0 85 58z" />
    <glyph glyph-name="degree" unicode="&#xb0;" horiz-adv-x="337" 
d="M320 580q0 -62 -45 -107t-107 -45t-106 45t-44 107t44.5 107t106.5 45t106.5 -45t44.5 -107zM256 580q0 37 -25 62.5t-62 25.5q-36 0 -62 -26t-26 -62t26 -62t62 -26q37 0 62 25.5t25 62.5z" />
    <glyph glyph-name="plusminus" unicode="&#xb1;" horiz-adv-x="853" 
d="M726 349h-249v-163h-101v163h-249v99h249v164h101v-164h249v-99zM726 -1h-599v99h599v-99z" />
    <glyph glyph-name="mu" unicode="&#xb5;" horiz-adv-x="616" 
d="M553 0h-124l-12 58q-26 -74 -94 -74q-65 0 -115 58v-168h-145v623h145v-169q0 -138 24 -182t85 -44t81 69q10 35 10 118v208h145v-497z" />
    <glyph glyph-name="mu" unicode="&#x3bc;" horiz-adv-x="616" 
d="M553 0h-124l-12 58q-26 -74 -94 -74q-65 0 -115 58v-168h-145v623h145v-169q0 -138 24 -182t85 -44t81 69q10 35 10 118v208h145v-497z" />
    <glyph glyph-name="paragraph" unicode="&#xb6;" 
d="M492 684h-57v-684h-75v684h-80v-684h-76v392q-79 3 -130 48q-54 48 -54 125q0 83 58 130q54 45 138 45h276v-56z" />
    <glyph glyph-name="periodcentered" unicode="&#xb7;" horiz-adv-x="308" 
d="M264 360q-48 -47 -110 -110q-44 45 -109 110q58 52 109 109q51 -55 110 -109z" />
    <glyph glyph-name="periodcentered" unicode="&#x2219;" horiz-adv-x="308" 
d="M264 360q-48 -47 -110 -110q-44 45 -109 110q58 52 109 109q51 -55 110 -109z" />
    <glyph glyph-name="guillemotright" unicode="&#xbb;" horiz-adv-x="519" 
d="M496 344l-172 -221l-75 77l121 144l-120 144l74 77zM276 344l-172 -221l-76 77l122 144l-120 144l74 77z" />
    <glyph glyph-name="afii10023" unicode="&#x401;" horiz-adv-x="580" 
d="M535 826q-29 -27 -91 -91l-89 91q32 28 89 88q46 -49 91 -88zM346 826q-29 -31 -89 -91q-29 31 -90 91q38 34 90 88q29 -30 89 -88zM578 -1q-137 5 -197 5h-84q-91 0 -187 -4l-33 30q8 176 8 322q0 148 -8 314l35 34q124 -4 216 -4q98 0 220 4l-39 -80q-68 4 -143 4h-84
l-6 -244q69 47 150 110q56 -74 118 -136q-94 -68 -142 -112q-47 54 -126 128l6 -292h21h22q14 -1 21 -1q92 0 188 7z" />
    <glyph glyph-name="afii10017" unicode="&#x410;" horiz-adv-x="742" 
d="M770 100q-88 -57 -173 -126q-130 230 -264 449q-141 -195 -293 -449l-62 88q137 201 296 455l-66 95q86 56 167 117q190 -326 395 -629zM456 122q-56 -45 -134 -117q-70 66 -136 117q72 72 136 146q53 -65 134 -146z" />
    <glyph glyph-name="afii10018" unicode="&#x411;" horiz-adv-x="666" 
d="M636 212q0 -148 -131 -188q-78 -24 -232 -24h-161l-35 34q11 194 11 356q0 150 -10 274l35 34q107 -7 216 -7q135 0 238 7l-36 -83q-117 7 -164 7h-80l-11 -170q360 0 360 -240zM452 229q0 150 -176 170v-96q0 -46 5 -124q5 -90 6 -123q165 20 165 173z" />
    <glyph glyph-name="afii10019" unicode="&#x412;" horiz-adv-x="728" 
d="M688 196q0 -118 -126 -168q-71 -28 -270 -28h-182l-33 30q8 176 8 322q0 148 -8 314l35 34h151q175 0 237 -17q149 -41 149 -151q0 -115 -169 -156q208 -40 208 -180zM461 509q0 70 -61 106q-49 28 -126 31l-2 -272q76 4 125 32q64 35 64 103zM498 192q0 125 -226 139
l2 -278q224 14 224 139z" />
    <glyph glyph-name="afii10020" unicode="&#x413;" horiz-adv-x="560" 
d="M543 702l-34 -87q-76 9 -142 9h-79q-13 -117 -13 -272q0 -137 21 -355q-48 3 -96 3q-46 0 -90 -3l-33 30q11 244 11 325q0 86 -11 314l35 34q144 -7 216 -7q80 0 215 9z" />
    <glyph glyph-name="afii10021" unicode="&#x414;" horiz-adv-x="692" 
d="M791 77l-36 -113q-46 36 -220 36h-435q-99 0 -137 -36l-28 113q59 -1 89 29q13 13 71 90q56 74 94 157q29 63 64 172l-57 87q62 40 164 117q208 -320 360 -652h71zM499 77q-79 195 -181 346q-45 -111 -85 -182q-46 -82 -116 -164h382z" />
    <glyph glyph-name="afii10022" unicode="&#x415;" horiz-adv-x="580" 
d="M578 -1q-137 5 -197 5h-84q-91 0 -187 -4l-33 30q8 176 8 322q0 148 -8 314l35 34q124 -4 216 -4q98 0 220 4l-39 -80q-68 4 -143 4h-84l-6 -244q69 47 150 110q56 -74 118 -136q-94 -68 -142 -112q-47 54 -126 128l6 -292h21h22q14 -1 21 -1q92 0 188 7z" />
    <glyph glyph-name="afii10024" unicode="&#x416;" horiz-adv-x="1117" 
d="M1117 102q-52 -34 -160 -124q-154 249 -270 422l-36 -24q6 -227 21 -380q-45 4 -130 4q-51 0 -97 -4q16 184 21 380l-36 24q-166 -252 -270 -422q-91 77 -160 124q153 200 276 401l-218 159l77 57q163 -135 335 -269q0 118 -16 250q60 -5 119 -5q33 0 90 5
q-16 -132 -16 -250q172 134 335 269l77 -57l-218 -159q123 -201 276 -401z" />
    <glyph glyph-name="afii10025" unicode="&#x417;" horiz-adv-x="582" 
d="M555 202q0 -112 -115 -166q-88 -42 -214 -42t-194 28l-48 76q59 -14 116 -14q232 0 232 132q0 70 -65 95q-42 17 -125 17q-21 0 -28 -2l-25 70q77 6 131 26q83 30 83 86q0 106 -187 106q-48 0 -104 -8l34 58q94 42 194 42q102 0 184 -40q102 -50 102 -142
q0 -99 -152 -132q78 -19 126 -64q55 -52 55 -126z" />
    <glyph glyph-name="afii10026" unicode="&#x418;" horiz-adv-x="808" 
d="M731 30l-32 -34q-38 4 -90 4t-79 -4q8 160 8 365v93h-3l-264 -462q-58 8 -161 8l-33 30q8 176 8 322q0 148 -8 314l35 34q29 -4 82 -4q40 0 84 4v-203q0 -123 -10 -290h4l170 299q27 49 55 99q33 57 61 95q56 -5 148 -5l25 -29q-7 -128 -7 -314q0 -187 7 -322z" />
    <glyph glyph-name="afii10027" unicode="&#x419;" horiz-adv-x="808" 
d="M622 903l-142 -165h-128l-109 151l56 56l105 -125l114 166zM731 30l-32 -34q-38 4 -90 4t-79 -4q8 160 8 365v93h-3l-264 -462q-58 8 -161 8l-33 30q8 176 8 322q0 148 -8 314l35 34q29 -4 82 -4q40 0 84 4v-203q0 -123 -10 -290h4l170 299q27 49 55 99q33 57 61 95
q56 -5 148 -5l25 -29q-7 -128 -7 -314q0 -187 7 -322z" />
    <glyph glyph-name="afii10028" unicode="&#x41a;" horiz-adv-x="738" 
d="M742 102q-69 -47 -160 -124q-104 171 -270 422l-36 -24q5 -190 21 -376q-46 4 -97 4q-49 0 -90 -4l-33 30q8 176 8 322q0 148 -8 314l35 34q40 -4 84 -4q46 0 92 4q-16 -132 -16 -250q172 134 335 269l77 -57l-218 -159q123 -201 276 -401z" />
    <glyph glyph-name="afii10029" unicode="&#x41b;" horiz-adv-x="692" 
d="M716 100q-88 -57 -173 -126q-89 227 -225 449q-131 -245 -275 -449l-68 76q116 165 284 467l-63 95q63 41 164 117q200 -314 356 -629z" />
    <glyph glyph-name="afii10030" unicode="&#x41c;" horiz-adv-x="888" 
d="M809 30l-30 -30q-37 3 -81 3q-40 0 -84 -3q2 46 2 61v85q0 186 -4 302l-221 -306q-107 153 -211 287v-396l-90 -53v552l-42 50q77 62 148 140q130 -185 268 -352l231 329q45 -3 59 -3q20 0 55 3q-6 -167 -6 -335q0 -166 6 -334z" />
    <glyph glyph-name="afii10031" unicode="&#x41d;" horiz-adv-x="808" 
d="M731 30l-32 -30q-42 3 -85 3q-44 0 -84 -3q4 146 4 307h-260v-51q0 -104 4 -256q-40 3 -84 3q-42 0 -84 -3l-33 30q8 176 8 322q0 148 -8 314l35 34q41 -4 82 -4q33 0 84 3q-4 -135 -4 -220v-88h260q0 173 -4 308q51 -3 84 -3q42 0 83 4l34 -34q-7 -128 -7 -314
q0 -187 7 -322z" />
    <glyph glyph-name="afii10032" unicode="&#x41e;" horiz-adv-x="778" 
d="M756 349q0 -160 -114 -262q-110 -97 -272 -97q-110 0 -192.5 53t-124.5 153q-31 74 -31 154q0 163 112 263q107 97 272 97q158 0 254 -101t96 -260zM540 303q0 120 -45 206q-52 97 -156 135q-103 -74 -103 -238q0 -119 44 -204q51 -98 153 -138q107 75 107 239z" />
    <glyph glyph-name="afii10033" unicode="&#x41f;" horiz-adv-x="808" 
d="M731 30l-32 -33q-42 3 -85 3q-44 0 -84 -3q0 63 2 189t2 189q0 40 -2 120.5t-2 120.5h-252q0 -46 -2 -139.5t-2 -140.5q0 -57 2 -170t2 -169q-59 3 -84 3q-39 0 -84 -3l-33 33q8 176 8 322q0 148 -8 314l35 34q49 0 146 -3.5t146 -3.5q4 0 89 4q64 3 202 3h2l34 -34
q-7 -128 -7 -314q0 -187 7 -322z" />
    <glyph glyph-name="afii10034" unicode="&#x420;" horiz-adv-x="664" 
d="M636 488q0 -234 -360 -240q4 -119 22 -248q-46 3 -95 3q-48 0 -93 -3l-33 30q8 176 8 322q0 148 -8 314l35 34q37 0 113 1h113q61 0 92 -4q37 -5 75 -21q131 -55 131 -188zM452 471q0 76 -48 122q-44 42 -122 51q-6 -154 -6 -279v-64q176 20 176 170z" />
    <glyph glyph-name="afii10035" unicode="&#x421;" horiz-adv-x="592" 
d="M592 141l-116 -141q-28 -5 -76 -5q-163 0 -263 91q-103 94 -103 255q0 165 109 265q105 98 271 98q54 0 100 -8l51 -84q-77 10 -102 10q-111 0 -170 -58t-59 -168q0 -125 80 -194q76 -66 203 -66q18 0 75 5z" />
    <glyph glyph-name="afii10036" unicode="&#x422;" horiz-adv-x="532" 
d="M559 697l-37 -83h-144q-12 -152 -12 -278q0 -112 12 -340q-33 4 -106 4q-53 0 -82 -4l-30 34q8 152 8 262q0 171 -6 251q-2 24 -6 71h-144l-36 84q200 -7 296 -7q139 0 287 6z" />
    <glyph glyph-name="afii10037" unicode="&#x423;" horiz-adv-x="638" 
d="M650 639q-142 -315 -247 -594l-71 -188l-83 50l59 138q-59 131 -144 278q-51 85 -152 257l12 26q104 47 162 91q31 -72 158 -274q29 -45 65 -112h4l152 386z" />
    <glyph glyph-name="afii10038" unicode="&#x424;" horiz-adv-x="956" 
d="M929 360q0 -134 -117 -200q-93 -53 -238 -53q0 -30 7 -111q-23 4 -131 4q-52 0 -75 -4q7 78 7 83v28q-145 0 -238 53q-117 66 -117 200q0 84 46.5 145t126.5 88q56 19 182 19q0 15 -3 41q-3 31 -4 40l12 7q63 -7 91 -7q31 0 91 7l12 -7q-1 -9 -4 -40q-3 -26 -3 -41
q127 0 183 -19q80 -27 126 -88t46 -145zM745 360q0 196 -171 196q-5 -125 -5 -177v-40q0 -58 5 -180q87 0 131 59q40 52 40 142zM387 404q0 29 -5 152q-171 0 -171 -196q0 -90 40 -142q44 -59 131 -59q5 121 5 156v89z" />
    <glyph glyph-name="afii10039" unicode="&#x425;" horiz-adv-x="662" 
d="M648 116q-92 -76 -154 -134q-89 139 -184 260l-216 -266l-56 96l212 246q-78 103 -214 252l5 33q75 50 145 117q95 -146 174 -246l218 248l50 -86l-204 -240q100 -115 223 -244z" />
    <glyph glyph-name="afii10040" unicode="&#x426;" horiz-adv-x="807" 
d="M807 77l-33 -113q-14 9 -29 14q-59 22 -260 22q-62 0 -187 -3.5t-187 -3.5l-34 34q8 146 8 314t-8 322l32 33q42 -3 85 -3q44 0 84 3q0 -55 -2 -166t-2 -166q0 -48 2 -143.5t2 -143.5h234q0 47 2 140t2 140q0 57 -2 170t-2 169q59 -3 84 -3q39 0 84 3l33 -33
q-8 -178 -8 -322q0 -126 8 -264h94z" />
    <glyph glyph-name="afii10041" unicode="&#x427;" horiz-adv-x="808" 
d="M731 30l-32 -34q-26 4 -85 4t-93 -4q11 180 11 314q-66 -44 -110 -61q-57 -22 -124 -22q-94 0 -137 59q-35 46 -42 136q-1 17 -1 155q0 7 -4 30q-3 16 -4 60l35 34q86 -8 72 -8q26 0 86 7v-4q0 -15 -2 -38q-3 -30 -3 -38q-3 -61 -3 -91q0 -81 16 -121q25 -63 93 -63
q64 0 128 42v313q32 -7 82 -7q1 0 82 8l35 -34q-10 -144 -10 -316q0 -191 10 -321z" />
    <glyph glyph-name="afii10042" unicode="&#x428;" horiz-adv-x="1147" 
d="M1075 77l-34 -81q-52 0 -161 2t-163 2h-239q-62 0 -186.5 -3.5t-185.5 -3.5l-34 34q8 146 8 314t-8 322l32 33q42 -3 85 -3t84 3q0 -55 -2 -166t-2 -166q0 -48 2 -144t2 -143h209q9 137 9 244q0 39 -4.5 116.5t-4.5 115.5l29 29h124l24 -29q0 -38 -4.5 -115.5
t-4.5 -116.5q0 -78 9 -244h215q0 46 2.5 139.5t2.5 140.5q0 57 -2.5 170t-2.5 169q58 -3 84 -3q39 0 84 3l33 -33q-8 -178 -8 -322q0 -44 4 -132t4 -132z" />
    <glyph glyph-name="afii10043" unicode="&#x429;" horiz-adv-x="1237" 
d="M1219 77l-33 -113q-64 36 -415 36h-243q-62 0 -186.5 -3.5t-185.5 -3.5l-34 34q8 146 8 314t-8 322l32 33q42 -3 85 -3t84 3q0 -55 -2 -166t-2 -166q0 -48 2 -144t2 -143h209q9 137 9 244q0 39 -4.5 116.5t-4.5 115.5l29 29h124l24 -29q0 -38 -4.5 -115.5t-4.5 -116.5
q0 -78 9 -244h215q0 46 2.5 139.5t2.5 140.5q0 57 -2.5 170t-2.5 169q58 -3 84 -3q39 0 84 3l33 -33q-8 -178 -8 -322q0 -126 8 -264h94z" />
    <glyph glyph-name="afii10044" unicode="&#x42a;" horiz-adv-x="722" 
d="M692 243q0 -243 -276 -243h-248l-36 34l1 20q11 168 11 382v179h-3q-99 0 -151 -12l-17 99q111 -9 198 -9q89 0 176 9l-15 -250q185 0 270 -44q90 -46 90 -165zM508 229q0 170 -176 170v-64q0 -100 7 -279q169 20 169 173z" />
    <glyph glyph-name="afii10045" unicode="&#x42b;" horiz-adv-x="1021" 
d="M944 27l-32 -30q-45 3 -93 3q-47 0 -90 -3q8 186 8 340q0 156 -8 326l35 35q51 -5 88 -5q9 0 92 5v-2q0 -30 -2 -81q-3 -60 -3 -80q-2 -95 -2 -174q0 -197 7 -334zM636 243q0 -243 -276 -243h-248l-35 34q11 194 11 356q0 150 -10 274l35 34q62 -5 88 -5q45 0 88 5
l-13 -246q185 0 270 -44q90 -47 90 -165zM452 229q0 170 -176 170v-66q0 -122 6 -277q78 9 122 51q48 46 48 122z" />
    <glyph glyph-name="afii10046" unicode="&#x42c;" horiz-adv-x="664" 
d="M636 243q0 -243 -276 -243h-248l-35 34q11 194 11 356q0 150 -10 274l35 34q62 -5 88 -5q45 0 88 5l-13 -246q185 0 270 -44q90 -47 90 -165zM452 229q0 170 -176 170v-66q0 -122 6 -277q78 9 122 51q48 46 48 122z" />
    <glyph glyph-name="afii10047" unicode="&#x42d;" horiz-adv-x="592" 
d="M592 341q0 -161 -101.5 -253.5t-264.5 -92.5q-48 0 -76 5l-116 141q56 -5 75 -5q122 0 198 61q81 66 86 185q-79 -40 -126 -113q-25 22 -70 51q-58 37 -72 47q64 81 113 119q26 -21 77 -47q57 -31 78 -45q0 111 -59.5 169.5t-170.5 58.5q-24 0 -102 -10l51 84q46 8 100 8
q166 0 273 -99t107 -264z" />
    <glyph glyph-name="afii10048" unicode="&#x42e;" horiz-adv-x="1132" 
d="M1111 349q0 -157 -111 -260q-107 -99 -266 -99q-149 0 -245 99.5t-96 249.5h-108q0 -184 7 -312l-32 -30q-45 3 -93 3q-47 0 -90 -3q8 186 8 340q0 156 -8 326l35 36q10 -1 45 -6q29 -4 43 -4q40 0 93 6q-8 -173 -8 -275h113q22 137 129 216q101 74 243 74
q157 0 251 -103q90 -99 90 -258zM904 303q0 120 -45 206q-52 97 -156 135q-103 -74 -103 -238q0 -119 44 -204q51 -98 153 -138q107 75 107 239z" />
    <glyph glyph-name="afii10049" unicode="&#x42f;" horiz-adv-x="730" 
d="M659 22l-36 -26q-29 4 -91 4q-57 0 -88 -4q13 109 13 284h-63q-112 -144 -228 -310q-78 78 -161 134q111 115 197 216q-126 40 -126 176q0 104 98 160q80 45 193 45q23 0 68.5 -4t68.5 -4q17 0 114 7l34 -26q-7 -119 -7 -279q0 -208 14 -373zM457 326v50q0 79 -9 269
q-180 -20 -180 -163q0 -141 189 -156z" />
    <glyph glyph-name="afii10065" unicode="&#x430;" horiz-adv-x="694" 
d="M719 140q-77 -48 -151 -106q-113 193 -230 378q-122 -164 -255 -378l-54 74q119 169 258 383l-57 79q74 47 145 99q165 -274 344 -529zM445 159q-49 -38 -116 -99q-61 56 -119 99q63 60 119 122q46 -55 116 -122z" />
    <glyph glyph-name="afii10066" unicode="&#x431;" horiz-adv-x="626" 
d="M600 234q0 -124 -114 -158q-68 -20 -202 -20h-140l-31 28q10 163 10 299q0 126 -9 231l31 28q93 -6 188 -6q117 0 207 6l-32 -70q-102 6 -142 6h-70l-10 -142q314 0 314 -202zM440 248q0 126 -154 143v-81q0 -38 5 -103q4 -76 5 -104q144 16 144 145z" />
    <glyph glyph-name="afii10067" unicode="&#x432;" horiz-adv-x="683" 
d="M648 221q0 -100 -109 -141q-62 -24 -235 -24h-159l-28 25q7 148 7 271q0 124 -7 263l30 29h132q152 0 206 -14q129 -34 129 -127q0 -97 -147 -131q181 -34 181 -151zM451 484q0 59 -54 89q-42 24 -109 26l-2 -229q66 4 109 27q56 30 56 87zM483 217q0 105 -197 117
l2 -233q195 11 195 116z" />
    <glyph glyph-name="afii10068" unicode="&#x433;" horiz-adv-x="527" 
d="M513 646l-30 -73q-66 7 -123 7h-69q-11 -98 -11 -228q0 -116 18 -299q-42 3 -84 3q-40 0 -78 -3l-29 26q10 205 10 273q0 72 -10 263l31 29q125 -6 188 -6q69 0 187 8z" />
    <glyph glyph-name="afii10069" unicode="&#x434;" horiz-adv-x="649" 
d="M735 120l-31 -95q-40 30 -191 30h-379q-86 0 -119 -30l-24 95q51 0 77 24q11 11 62 76q78 101 137 276l-49 74q53 33 142 98q181 -269 314 -548h61zM481 120q-69 164 -157 291q-73 -174 -175 -291h332z" />
    <glyph glyph-name="afii10070" unicode="&#x435;" horiz-adv-x="547" 
d="M545 55q-119 4 -171 4h-73q-79 0 -163 -3l-28 25q7 148 7 271q0 124 -7 263l30 29q108 -3 188 -3q85 0 191 3l-34 -67q-59 3 -124 3h-73l-5 -205q60 40 130 93q49 -63 103 -115q-82 -57 -124 -94q-40 45 -109 108l5 -246h18h18.5h19.5q79 0 163 5z" />
    <glyph glyph-name="afii10072" unicode="&#x436;" horiz-adv-x="1044" 
d="M1044 141q-45 -29 -139 -104q-134 210 -235 355l-31 -20q5 -191 18 -320q-39 4 -113 4q-44 0 -84 -4q13 155 18 320l-31 20q-145 -212 -235 -355q-79 65 -139 104q133 168 240 337l-190 134l67 48q142 -114 292 -226q0 99 -14 210q51 -4 103 -4q29 0 78 4
q-14 -111 -14 -210q150 112 292 226l67 -48l-190 -134q107 -169 240 -337z" />
    <glyph glyph-name="afii10073" unicode="&#x437;" horiz-adv-x="541" 
d="M518 226q0 -94 -100 -140q-77 -35 -186 -35q-110 0 -169 23l-42 64q52 -11 101 -11q202 0 202 110q0 59 -57 81q-37 14 -108 14q-18 0 -25 -2l-22 59q187 13 187 94q0 89 -163 89q-42 0 -91 -7l30 49q82 35 169 35q89 0 160 -34q89 -42 89 -119q0 -83 -133 -111
q68 -16 110 -53q48 -44 48 -106z" />
    <glyph glyph-name="afii10074" unicode="&#x438;" horiz-adv-x="755" 
d="M688 81l-27 -29q-34 3 -79 3t-68 -3q7 131 7 307v78h-3l-230 -388q-51 6 -140 6l-28 26q6 148 6 270q0 124 -6 264l30 28q25 -3 71 -3q35 0 73 3v-170q0 -104 -8 -244h3l148 251q31 56 101 163q49 -4 129 -4l21 -24q-6 -108 -6 -264q0 -157 6 -270z" />
    <glyph glyph-name="afii10075" unicode="&#x439;" horiz-adv-x="755" 
d="M594 864l-124 -138h-111l-95 127l49 47l91 -105l99 139zM688 106l-27 -29q-34 4 -79 4t-68 -4q7 131 7 307v78h-3l-230 -388q-51 7 -140 7l-28 25q6 148 6 270q0 124 -6 264l30 29q25 -4 71 -4q35 0 73 4v-171q0 -103 -8 -243h3l148 251q31 56 101 163q49 -5 129 -5
l21 -24q-6 -107 -6 -264t6 -270z" />
    <glyph glyph-name="afii10076" unicode="&#x43a;" horiz-adv-x="695" 
d="M699 141q-60 -39 -139 -104q-91 144 -235 355l-32 -20q5 -160 19 -316q-41 3 -85 3q-43 0 -78 -3l-29 25q7 148 7 270q0 125 -7 264l31 29q35 -4 73 -4q40 0 80 4q-14 -111 -14 -210q149 112 291 226l67 -48l-189 -134q107 -169 240 -337z" />
    <glyph glyph-name="afii10077" unicode="&#x43b;" horiz-adv-x="647" 
d="M668 140q-77 -48 -151 -106q-77 191 -195 378q-114 -206 -240 -378l-59 64q101 138 247 393l-55 79q55 35 143 99q174 -264 310 -529z" />
    <glyph glyph-name="afii10078" unicode="&#x43c;" horiz-adv-x="828" 
d="M760 81l-27 -25q-32 3 -70 3q-35 0 -73 -3q2 39 2 51v72q0 156 -4 253l-192 -257q-93 129 -184 242v-333l-78 -45v464l-37 42q67 52 129 118q113 -156 233 -296l201 276q39 -2 52 -2q17 0 48 2q-6 -140 -6 -281q0 -139 6 -281z" />
    <glyph glyph-name="afii10079" unicode="&#x43d;" horiz-adv-x="755" 
d="M688 81l-27 -25q-37 3 -74 3q-38 0 -73 -3q3 123 3 258h-226v-43q0 -87 3 -215q-35 3 -73 3q-36 0 -73 -3l-28 25q6 148 6 271q0 124 -6 263l30 29q36 -3 71 -3q29 0 73 2q-3 -114 -3 -185v-74h226q0 146 -3 259q44 -2 73 -2q36 0 72 3l29 -29q-6 -107 -6 -263
q0 -158 6 -271z" />
    <glyph glyph-name="afii10080" unicode="&#x43e;" horiz-adv-x="727" 
d="M708 349q0 -134 -99 -220q-96 -81 -237 -81q-200 0 -275 173q-27 62 -27 129q0 137 97 221q93 81 237 81q137 0 220.5 -85t83.5 -218zM520 311q0 225 -174 286q-90 -62 -90 -200q0 -223 171 -287q93 63 93 201z" />
    <glyph glyph-name="afii10081" unicode="&#x43f;" horiz-adv-x="755" 
d="M688 81l-27 -28q-37 3 -74 3q-38 0 -73 -3q0 53 1.5 159t1.5 159q0 34 -1.5 101.5t-1.5 100.5h-220q0 -39 -1.5 -117.5t-1.5 -117.5q0 -48 1.5 -143t1.5 -142q-51 3 -73 3q-33 0 -73 -3l-28 28q6 148 6 270q0 124 -6 264l30 29q42 0 127 -3t127 -3q3 0 77 3q56 3 176 3h2
l29 -29q-6 -107 -6 -264t6 -270z" />
    <glyph glyph-name="afii10082" unicode="&#x440;" horiz-adv-x="624" 
d="M600 466q0 -197 -314 -202q4 -99 20 -208q-41 3 -83 3t-81 -3l-29 25q7 148 7 271q0 124 -7 264l31 28q32 0 98 1h98q94 0 146 -21q114 -47 114 -158zM440 452q0 128 -148 145q-6 -129 -6 -234v-54q154 17 154 143z" />
    <glyph glyph-name="afii10083" unicode="&#x441;" horiz-adv-x="556" 
d="M556 174l-101 -118q-24 -4 -66 -4q-142 0 -229 76q-90 79 -90 214q0 139 95 223q92 82 236 82q47 0 87 -6l44 -71q-66 8 -89 8q-199 0 -199 -189q0 -105 70 -164q66 -55 176 -55q17 0 66 4z" />
    <glyph glyph-name="afii10084" unicode="&#x442;" horiz-adv-x="498" 
d="M521 641l-32 -70h-125q-11 -127 -11 -233q0 -94 11 -286q-29 4 -93 4q-46 0 -71 -4l-26 29q7 127 7 220q0 145 -11 270h-125l-31 71q174 -6 257 -6q122 0 250 5z" />
    <glyph glyph-name="afii10085" unicode="&#x443;" horiz-adv-x="598" 
d="M609 581q-124 -264 -215 -499l-62 -158l-72 42l51 116q-51 110 -125 234q-45 71 -133 216l11 21q91 40 141 77q27 -61 137 -230q25 -38 57 -94h3l133 324z" />
    <glyph glyph-name="afii10086" unicode="&#x444;" horiz-adv-x="894" 
d="M870 358q0 -112 -101 -168q-81 -44 -207 -44q0 -26 6 -94q-20 4 -114 4q-46 0 -66 -4q6 66 6 70v24q-126 0 -207 44q-101 56 -101 168q0 70 40 121.5t110 74.5q49 16 158 16q0 12 -2 34q-3 26 -4 34l11 6q55 -6 79 -6q27 0 79 6l11 -6q-1 -8 -4 -34q-2 -22 -2 -34
q110 0 159 -16q70 -23 109.5 -74t39.5 -122zM710 358q0 165 -148 165q-5 -105 -5 -149v-34q0 -48 5 -151q75 0 114 50q34 44 34 119zM399 395q0 24 -5 128q-148 0 -148 -165q0 -75 34 -119q39 -50 114 -50q5 102 5 131v75z" />
    <glyph glyph-name="afii10087" unicode="&#x445;" horiz-adv-x="620" 
d="M608 153q-79 -64 -134 -112q-77 116 -160 218l-188 -223l-48 80l184 207q-68 87 -186 212l4 27q65 42 126 99q83 -123 152 -207l189 208l44 -72l-178 -202q87 -96 194 -204z" />
    <glyph glyph-name="afii10088" unicode="&#x446;" horiz-adv-x="760" 
d="M760 117l-29 -94q-13 7 -25 11q-52 19 -227 19q-54 0 -162.5 -3t-162.5 -3l-30 28q7 123 7 264t-7 271l28 27q37 -2 74 -2q38 0 73 2q0 -46 -1.5 -139t-1.5 -139q0 -41 1.5 -121t1.5 -121h204q0 40 1.5 118t1.5 118q0 47 -1.5 142t-1.5 142q51 -2 73 -2q34 0 73 2l29 -27
q-7 -150 -7 -271q0 -106 7 -222h82z" />
    <glyph glyph-name="afii10089" unicode="&#x447;" horiz-adv-x="758" 
d="M691 81l-28 -29q-23 4 -74 4t-81 -4q9 152 10 264q-58 -37 -96 -51q-49 -19 -108 -19q-82 0 -120 50q-29 39 -36 115q-1 14 -1 129q0 6 -3 26q-3 13 -4 50l31 29q74 -7 62 -7q23 0 75 6v-4q0 -12 -1 -32q-3 -24 -3 -31q-3 -52 -3 -77q0 -68 14 -102q22 -52 81 -52
q56 0 112 35v263q27 -6 71 -6q1 0 71 7l31 -29q-9 -121 -9 -265q0 -161 9 -270z" />
    <glyph glyph-name="afii10090" unicode="&#x448;" horiz-adv-x="1072" 
d="M1010 120l-30 -68q-45 0 -139.5 1.5t-142.5 1.5h-208q-54 0 -162 -3t-161 -3l-30 29q7 123 7 264t-7 270l28 28q37 -3 74 -3t73 3q0 -46 -1.5 -139.5t-1.5 -139.5q0 -40 1.5 -120.5t1.5 -120.5h182q8 115 8 205q0 32 -4 97.5t-4 97.5l25 24h108l21 -24q0 -32 -4 -97.5
t-4 -97.5q0 -66 8 -205h187q0 39 2 117.5t2 117.5q0 48 -2 143t-2 142q51 -3 73 -3q34 0 73 3l29 -28q-7 -150 -7 -270q0 -38 3.5 -112t3.5 -110z" />
    <glyph glyph-name="afii10091" unicode="&#x449;" horiz-adv-x="1163" 
d="M1148 117l-29 -94q-55 30 -361 30h-211q-55 0 -163 -3t-161 -3l-30 28q7 123 7 264t-7 271l28 27q37 -2 74 -2t73 2q0 -46 -1.5 -139t-1.5 -139q0 -41 1.5 -121.5t1.5 -120.5h182q8 116 8 205q0 33 -4 98.5t-4 96.5l25 25h108l21 -25q0 -32 -4 -97t-4 -98q0 -65 8 -205
h187q0 39 2 117.5t2 118.5q0 47 -2 142t-2 142q51 -2 73 -2q34 0 73 2l29 -27q-7 -150 -7 -271q0 -106 7 -222h82z" />
    <glyph glyph-name="afii10092" unicode="&#x44a;" horiz-adv-x="671" 
d="M645 260q0 -204 -240 -204h-216l-31 29q11 148 11 337v151h-3q-86 0 -131 -10l-15 83q96 -8 172 -8q77 0 153 8l-13 -210q161 0 235 -37q78 -39 78 -139zM485 249q0 143 -153 142v-53q0 -84 6 -235q147 17 147 146z" />
    <glyph glyph-name="afii10093" unicode="&#x44b;" horiz-adv-x="955" 
d="M888 78l-28 -25q-39 3 -81 3q-41 0 -78 -3q7 157 7 286q0 130 -7 274l30 29q45 -4 77 -4q8 0 80 4v-2q0 -25 -2 -67q-2 -51 -3 -68q-1 -80 -1 -146q0 -166 6 -281zM620 260q0 -204 -240 -204h-216l-31 28q10 163 10 299q0 126 -9 230l31 29q54 -4 76 -4q39 0 77 4
l-12 -207q162 0 235 -37q79 -39 79 -138zM460 248q0 143 -154 143v-56q0 -102 6 -232q148 17 148 145z" />
    <glyph glyph-name="afii10094" unicode="&#x44c;" horiz-adv-x="624" 
d="M600 260q0 -204 -240 -204h-216l-31 28q10 163 10 299q0 126 -9 231l31 28q54 -4 76 -4q39 0 77 4l-12 -206q162 0 235 -37q79 -40 79 -139zM440 248q0 143 -154 143v-55q0 -103 6 -233q148 17 148 145z" />
    <glyph glyph-name="afii10095" unicode="&#x44d;" horiz-adv-x="556" 
d="M556 342q0 -135 -88.5 -212.5t-230.5 -77.5q-42 0 -66 4l-101 118q49 -4 66 -4q105 0 173.5 53.5t73.5 153.5q-69 -34 -110 -95q-22 19 -61 43q-50 31 -63 39q56 68 99 100q23 -17 66 -40q50 -25 69 -37q0 93 -52 142t-148 49q-22 0 -89 -8l44 71q40 6 87 6
q145 0 238 -83t93 -222z" />
    <glyph glyph-name="afii10096" unicode="&#x44e;" horiz-adv-x="1062" 
d="M1044 349q0 -132 -95 -216.5t-233 -84.5q-130 0 -213.5 83.5t-83.5 209.5h-94q0 -155 6 -262l-28 -26q-39 3 -80 3t-79 -3q7 157 7 286q0 131 -7 274l31 30q8 -1 39 -5q25 -3 37 -3q35 0 81 5q-7 -145 -7 -231h98q20 115 113 181q87 62 211 62q137 0 217 -85t80 -218z
M864 311q0 225 -175 286q-90 -62 -90 -200q0 -223 172 -287q93 63 93 201z" />
    <glyph glyph-name="afii10097" unicode="&#x44f;" horiz-adv-x="678" 
d="M616 72l-31 -22q-25 4 -79 4q-50 0 -77 -4q12 92 12 239h-55q-98 -121 -198 -261q-68 66 -140 113q96 96 171 181q-110 34 -110 148q0 88 86 134q69 39 167 39q20 0 60 -3.5t60 -3.5q15 0 99 6l29 -22q-6 -100 -6 -235q0 -175 12 -313zM441 328v42q0 66 -8 225
q-157 -16 -157 -136q0 -119 165 -131z" />
    <glyph glyph-name="afii10071" unicode="&#x451;" horiz-adv-x="547" 
d="M508 767q-25 -23 -79 -77l-78 77q29 24 78 74q40 -41 79 -74zM344 767q-26 -26 -78 -77q-25 26 -78 77q33 28 78 74q25 -26 78 -74zM545 72q-119 4 -171 4h-73q-79 0 -163 -3l-28 25q7 148 7 271q0 124 -7 263l30 29q108 -3 188 -3q85 0 191 3l-34 -67q-59 3 -124 3h-73
l-5 -205q60 40 130 93q49 -63 103 -115q-82 -57 -124 -94q-40 45 -109 108l5 -245h18q6 0 19 -1h19q79 0 163 6z" />
    <glyph glyph-name="endash" unicode="&#x2013;" 
d="M512 316h-512v86h512v-86z" />
    <glyph glyph-name="emdash" unicode="&#x2014;" horiz-adv-x="1024" 
d="M1031 316h-1038v86h1038v-86z" />
    <glyph glyph-name="quoteleft" unicode="&#x2018;" horiz-adv-x="272" 
d="M254 604l-52 -49q14 -45 46 -125l-66 -43q-58 101 -134 225q52 44 106 98q33 -36 100 -106z" />
    <glyph glyph-name="quoteright" unicode="&#x2019;" horiz-adv-x="272" 
d="M254 612q-76 -124 -134 -225l-66 43q23 53 46 125l-52 49q50 52 100 106q63 -63 106 -98z" />
    <glyph glyph-name="quotesinglbase" unicode="&#x201a;" horiz-adv-x="308" 
d="M262 98q-46 -74 -134 -225l-66 43q23 59 46 125l-52 49q54 56 100 108q64 -67 106 -100z" />
    <glyph glyph-name="quotedblleft" unicode="&#x201c;" horiz-adv-x="486" 
d="M467 604l-53 -49q19 -57 47 -125l-65 -43q-67 116 -135 225q37 32 107 98q60 -69 99 -106zM254 604l-52 -49q14 -45 46 -125l-66 -43q-58 101 -134 225q52 44 106 98q33 -36 100 -106z" />
    <glyph glyph-name="quotedblright" unicode="&#x201d;" horiz-adv-x="486" 
d="M467 612q-76 -124 -134 -225l-65 43q24 60 46 125l-53 49q34 34 101 106q52 -55 105 -98zM254 612q-76 -124 -134 -225l-66 43q23 53 46 125l-52 49q50 52 100 106q63 -63 106 -98z" />
    <glyph glyph-name="quotedblbase" unicode="&#x201e;" horiz-adv-x="528" 
d="M482 98q-64 -102 -134 -225l-66 43q29 72 46 125l-52 49q54 56 100 108q64 -67 106 -100zM262 98q-46 -74 -134 -225l-66 43q23 59 46 125l-52 49q54 56 100 108q64 -67 106 -100z" />
    <glyph glyph-name="dagger" unicode="&#x2020;" horiz-adv-x="434" 
d="M394 394l-154 41q17 -74 46 -167q-30 -264 -44 -433h-52q-16 191 -44 433q28 89 48 167l-156 -41v136l154 -38l-40 208h128l-40 -208l154 38v-136z" />
    <glyph glyph-name="bullet" unicode="&#x2022;" horiz-adv-x="604" 
d="M450 381q0 -61 -44 -105t-105 -44q-60 0 -103.5 44.5t-43.5 104.5q0 61 43.5 104t104.5 43t104.5 -43.5t43.5 -103.5z" />
    <glyph glyph-name="ellipsis" unicode="&#x2026;" horiz-adv-x="1024" 
d="M964 89q-13 -12 -110 -109q-36 37 -109 109q58 52 109 109q30 -34 110 -109zM622 89q-13 -12 -110 -109q-36 37 -109 109q58 52 109 109q30 -34 110 -109zM280 89q-13 -12 -110 -109q-36 37 -109 109q58 52 109 109q30 -34 110 -109z" />
    <glyph glyph-name="perthousand" unicode="&#x2030;" horiz-adv-x="1472" 
d="M1447 184q0 -94 -62 -147q-58 -49 -154 -49q-90 0 -144.5 56t-54.5 146q0 95 58 147t154 52q95 0 149 -55t54 -150zM983 184q0 -95 -60.5 -145.5t-156.5 -50.5q-89 0 -143.5 56t-54.5 146q0 95 58 147t154 52q95 0 149 -55t54 -150zM761 756l-443 -847l-71 37l444 848z
M440 507q0 -95 -62 -148q-58 -49 -155 -49q-90 0 -144.5 56t-54.5 146q0 96 59 148q56 50 153 50q95 0 149.5 -54t54.5 -149zM1306 158q0 59 -19 107q-23 57 -69 80q-46 -42 -46 -126q0 -132 88 -184q46 41 46 123zM842 158q0 58 -21 107q-24 57 -69 80q-44 -42 -44 -126
q0 -133 86 -184q48 41 48 123zM299 482q0 57 -20 106q-23 58 -68 80q-45 -41 -45 -126q0 -132 87 -184q46 40 46 124z" />
    <glyph glyph-name="guilsinglleft" unicode="&#x2039;" horiz-adv-x="299" 
d="M276 200l-73 -77l-175 221l174 221l74 -77l-120 -144z" />
    <glyph glyph-name="guilsinglright" unicode="&#x203a;" horiz-adv-x="299" 
d="M276 343l-172 -220l-74 77l120 143l-122 145l76 76z" />
    <glyph glyph-name="afii61352" unicode="&#x2116;" horiz-adv-x="1233" 
d="M1181 361q0 -80 -63 -129q-58 -44 -141 -44q-121 0 -167 99q-17 36 -17 74q0 81 63 129q58 44 141 44q79 0 131.5 -47.5t52.5 -125.5zM1165 32h-353v102h353v-102zM754 108q-78 -66 -142 -134q-133 159 -401 474v-416l-101 -50v578l-40 45q84 58 160 118
q207 -266 380 -449v396l98 50v-562zM1067 339q0 128 -106 163q-54 -35 -54 -114q0 -128 104 -165q56 36 56 116z" />
    <glyph glyph-name="trademark" unicode="&#x2122;" horiz-adv-x="853" 
d="M723 458h-67v204l-78 -204h-30l-79 204v-204h-67v273h98l63 -166l61 166h99v-273zM346 675h-84v-217h-74v217h-84v56h242v-56z" />
    </font>
</defs>
</svg>
